<svg xmlns="http://www.w3.org/2000/svg" viewBox="0 0 24 24"><path fill="currentColor" d="M 11.12 1.00 L 8.56 1.81 L 6.53 3.70 L 5.72 5.72 L 5.59 8.15 L 3.83 8.56 L 3.02 9.50 L 3.02 10.72 L 3.43 11.39 L 4.37 12.20 L 5.32 12.61 L 5.45 13.01 L 3.56 15.17 L 1.67 16.25 L 1.13 16.79 L 1.00 17.47 L 1.13 18.01 L 1.67 18.55 L 3.56 19.36 L 4.10 20.17 L 4.91 20.71 L 7.48 20.84 L 9.23 22.06 L 10.85 22.60 L 12.20 22.73 L 14.50 22.19 L 16.52 20.84 L 18.82 20.84 L 19.49 20.57 L 20.44 19.36 L 22.73 18.28 L 23.00 17.87 L 23.00 16.93 L 22.60 16.39 L 20.17 14.90 L 18.55 12.88 L 18.68 12.61 L 19.90 12.07 L 20.84 11.12 L 21.11 9.64 L 20.30 8.56 L 18.41 8.15 L 18.55 7.48 L 18.28 5.45 L 17.33 3.43 L 16.66 2.62 L 14.63 1.40 L 13.01 1.00 Z"/></svg>
