<?xml version="1.0" encoding="UTF-8"?>
<svg xmlns="http://www.w3.org/2000/svg" viewBox="0 0 24 24">
  <path fill="currentColor" fill-rule="evenodd" d="M 10.29 22.00 L 7.54 21.72 L 6.12 20.96 L 4.94 19.87 L 3.70 17.31 L 3.80 14.56 L 4.75 12.66 L 6.12 11.29 L 7.92 10.44 L 9.91 10.25 L 10.15 10.39 L 10.15 13.14 L 8.49 13.47 L 7.21 14.47 L 6.74 15.41 L 6.74 16.84 L 7.92 18.50 L 9.16 18.97 L 10.58 18.78 L 11.76 17.78 L 12.33 16.55 L 12.33 2.14 L 12.57 1.90 L 15.51 1.90 L 16.65 4.75 L 18.07 5.98 L 20.30 6.69 L 20.30 9.25 L 19.21 9.49 L 17.41 9.11 L 15.37 7.83 L 15.37 16.84 L 14.99 18.35 L 14.23 19.68 L 13.14 20.77 L 11.72 21.62 L 10.29 22.00 Z"/>
</svg>
